<?xml version="1.0" encoding="UTF-8" standalone="no"?><!DOCTYPE svg PUBLIC "-//W3C//DTD SVG 1.1//EN" "http://www.w3.org/Graphics/SVG/1.1/DTD/svg11.dtd"><svg width="100%" height="100%" viewBox="0 0 4080 1785" version="1.1" xmlns="http://www.w3.org/2000/svg" xmlns:xlink="http://www.w3.org/1999/xlink" xml:space="preserve" xmlns:serif="http://www.serif.com/" style="fill-rule:evenodd;clip-rule:evenodd;stroke-linejoin:round;stroke-miterlimit:2;"><path d="M1806.77,1784.79c-93.446,-86.596 -183.258,-169.821 -278.058,-257.675c-0,13.508 0.008,20.641 -0.005,27.779c-0.104,67.279 -0.683,134.562 -0.02,201.837c0.183,18.875 -6.688,26.655 -25.442,26.109c-24.258,-0.704 -48.621,-1.359 -72.804,0.133c-21.275,1.317 -25.9,-8.579 -25.771,-27.329c0.612,-88.779 0.437,-177.558 0.421,-266.342c-0.017,-72.133 -0.246,-144.266 -0.234,-216.4c0.005,-7.321 1.042,-14.641 1.6,-21.962c2.021,-1.334 4.042,-2.667 6.063,-4c89.692,83.512 179.383,167.021 273.867,254.987l-0,-24.662c-0.03,-68.667 -0.059,-137.334 -0.084,-206c-0.008,-26.542 1.159,-27.734 28.4,-27.896c24.967,-0.154 49.938,-0.058 74.909,-0.296c14.7,-0.137 21.262,6.538 21.233,21.517c-0.317,167.158 -0.363,334.316 -0.6,501.475c-0.004,3.841 -1.371,7.679 -3.475,18.725" style="fill:#be1e2d;fill-rule:nonzero;"/><path d="M454.488,1315.48c-0.167,127.584 -0.209,255.209 -0.459,382.792c-0.083,56.042 -26.875,82.792 -82.833,82.917c-86.667,0.166 -240.704,0.166 -327.371,0.208c-15.792,0.042 -22.792,-0.708 -25.875,-7.083l127.833,-118.75l182.205,-0l-0,-289.209c-34.25,0 -139.363,-0.791 -173.03,0.334c-17.791,0.583 -31.875,-4.042 -44.958,-16.25c-31.375,-29.375 -63.708,-57.709 -95.5,-86.625c-4.333,-3.959 -7.667,-8.959 -14.5,-17.125c11.25,-1.959 18.167,-4.125 25.083,-4.167c95,-0.458 261.404,-0.75 356.405,-0.708c47.416,-0 73.041,26.375 72.999,73.666" style="fill:#be1e2d;fill-rule:nonzero;"/><path d="M2131.58,1658.32l0,-83.991c-7.937,-0 -15.312,0.004 -22.683,-0c-51.317,-0.046 -102.638,0.246 -153.95,-0.242c-48.979,-0.467 -74.267,-26.421 -74.292,-74.712c-0.033,-61.721 -0.3,-123.438 -0.412,-185.155c-0.075,-41.4 25.158,-68.47 66.579,-68.795c99.162,-0.78 198.333,-0.65 297.496,-0.471c5.371,0.008 10.733,3.833 16.096,5.879c-2.788,4.358 -4.771,9.621 -8.488,12.937c-35.196,31.367 -70.221,62.963 -106.442,93.113c-8.195,6.821 -20.725,11.233 -31.47,11.683c-34.567,1.454 -69.238,0.542 -105.455,0.542l0,79.775c7.142,-0 14.442,0.008 21.742,-0c52.008,-0.042 104.021,-0.308 156.033,-0.058c45.092,0.216 72.275,27.741 72.33,72.737c0.075,64.492 0.095,128.983 -0.038,193.475c-0.083,41.292 -25.812,67.279 -67.508,67.488c-96.392,0.487 -192.784,0.65 -289.175,0.566c-6.329,-0.008 -12.659,-3.191 -18.984,-4.896c3.042,-5.641 4.83,-12.691 9.33,-16.695c35.216,-31.342 70.504,-62.642 106.883,-92.605c7.729,-6.366 19.917,-9.72 30.217,-10.108c33.212,-1.25 66.504,-0.467 102.191,-0.467" style="fill:#be1e2d;fill-rule:nonzero;"/><path d="M650.363,1570.77l0,86.779c9.392,-0 17.488,0.012 25.588,-0.004c61.725,-0.142 123.454,0.137 185.167,-0.696c18.483,-0.25 26.808,5.758 26.12,25.146c-0.937,26.316 -0.479,52.708 0.229,79.046c0.405,14.908 -5.491,21.754 -20.566,21.75c-107.496,-0.03 -214.992,0.15 -322.488,0.283c-14.037,0.021 -19.625,-7.213 -19.604,-20.875c0.167,-98.479 0.225,-196.963 -0.062,-295.442c-0.042,-15.341 7.333,-21.379 21.533,-21.35c91.546,0.175 183.092,0.45 274.633,0.509c16.15,0.008 21.805,7.712 21.205,23.412c-0.955,24.933 -1.355,49.958 -0.367,74.879c0.787,19.867 -6.971,27.213 -26.796,26.854c-48.529,-0.879 -97.087,-0.287 -145.633,-0.291l-18.959,-0" style="fill:#be1e2d;fill-rule:nonzero;"/><path d="M1208.4,1551.86l-127.792,0c0,-19.583 -0.208,-118.083 -0.125,-186.125c42.833,-0.041 85.75,-0.041 127.917,-0.041l-0,186.166Zm125.333,-186.208l0,-16.75c0.083,-58.833 -47.583,-106.5 -106.417,-106.417l-18.916,0c-231.375,0.209 -515.625,0.209 -646.625,0.292c-4.875,0 -9.709,0.292 -14.584,0.25c-15.375,-0.208 -22.75,6.458 -22.166,22.708c0.791,22.875 0.291,45.75 0.208,68.625c-0.083,30.5 0.917,31.584 31.5,31.584c94.125,-0.042 240.708,-0.084 398.5,-0.125c0.208,118.833 0,313.166 -0.333,393.166c-0.042,18 7.625,24.709 25.291,24.042c24.209,-0.917 48.5,-0.292 72.792,-0.208c25.292,0.083 28.125,-2.75 28.125,-29c0.042,-24.584 0.042,-49.209 0.042,-73.334l128.208,0c0,28.292 0.208,54.542 -0.083,80.792c-0.167,14.292 5,22.083 20.541,21.875c27.042,-0.417 54.084,-0.083 81.125,0.167c15.25,0.125 22.875,-6.084 22.834,-22.334c-0.125,-61.333 -0.125,-243.125 -0.042,-395.333" style="fill:#be1e2d;fill-rule:nonzero;"/><g><path d="M3703.84,1781.74l-155.758,0c-2.2,0 -4.321,-0.846 -5.917,-2.358c-75.421,-71.388 -148.867,-140.971 -192.592,-182.1c-0.583,12.583 -1.166,19.708 -1.166,26.833c-0.125,45.084 -0.667,90.167 0.041,135.25c0.292,17.875 -6.416,25.417 -24.291,25.042c-27.042,-0.583 -54.084,-0.375 -81.125,-0.083c-14.042,0.125 -19.959,-6.125 -19.917,-20.167c0.458,-97.833 0.625,-195.625 0.667,-293.417c-0,-18.958 12.125,-20.625 26.541,-20.583c74.25,0.292 148.459,0.417 222.667,0.583l24.625,0l-0,-83.208c-8.083,-0.375 -16.875,-1.083 -25.708,-1.125c-73.5,-0.25 -147.042,-0.792 -220.542,-0.208c-18.458,0.166 -26.958,-5.167 -26.167,-24.75c0.959,-25.625 0.167,-51.334 -0.083,-77c-0.167,-15.625 7.667,-23.042 22.875,-23c104.75,0.125 209.5,-0.375 314.208,0.958c37.417,0.458 62.667,28.708 62.917,66.375c0.375,63.792 0.417,127.625 -0.042,191.458c-0.333,42.75 -29.291,70.959 -72.416,71.709c-13.834,0.25 -27.667,0.041 -45.292,0.041c5.167,6.25 7.917,10.375 11.417,13.709c24.45,22.991 125.708,119.062 191,181.204c5.629,5.358 1.829,14.837 -5.942,14.837" style="fill:#0a6a47;fill-rule:nonzero;"/><path d="M2901.59,1654.05l124.829,-0l0,-286.629l-24.7,-0c-65.904,-0.017 -131.812,0.016 -197.716,-0.08c-27.075,-0.037 -30.442,-3.483 -30.279,-29.633c0.145,-23.587 0.762,-47.187 0.175,-70.758c-0.417,-16.625 6.087,-24.113 23.129,-24.063c98.508,0.292 197.021,-0.25 295.529,0.363c36.392,0.229 59.421,26.179 59.562,65.812c0.392,108.913 0.275,217.829 0.338,326.746c0.017,26.363 0.221,52.725 -0.125,79.083c-0.463,35.405 -26.579,65.071 -61.896,65.896c-65.175,1.521 -130.408,0.867 -195.608,0.296c-6.775,-0.058 -14.804,-4.217 -20.029,-8.933c-29.867,-26.946 -59.521,-54.171 -88.105,-82.454c-6.054,-5.992 -10.225,-16.746 -10.37,-25.392c-1.088,-63.804 -0.742,-127.633 -1.309,-191.45c-0.129,-14.654 5.179,-21.996 20.534,-21.796c27.741,0.363 55.504,0.442 83.241,-0.108c17.092,-0.338 23.196,7.287 23.004,24c-0.587,51.329 -0.208,102.671 -0.204,154.008l0,25.092" style="fill:#0a6a47;fill-rule:nonzero;"/><path d="M3947.02,1365.76l0,415.571c-7.808,-4.296 -12.762,-5.867 -16.179,-9.075c-31.846,-29.892 -64.108,-59.4 -94.612,-90.617c-7.625,-7.808 -13.096,-21.35 -13.2,-32.312c-1.067,-113.017 -0.83,-144.238 -0.955,-257.263c-0.008,-7.567 -0.004,-15.133 -0.004,-26.546c-33.454,0 -65.783,0.088 -98.112,-0.029c-27.834,-0.1 -29.179,-1.721 -28.946,-29.696c0.196,-23.571 0.608,-47.166 -0.158,-70.716c-0.546,-16.713 6.2,-24.296 22.991,-24.284c113.717,0.075 227.434,-0.066 341.15,-0.171c13.792,-0.012 20.204,6.684 20.075,20.509c-0.258,27.733 -0.671,55.483 -0.008,83.2c0.396,16.612 -7.25,21.837 -22.754,21.6c-35.238,-0.542 -70.488,-0.171 -109.288,-0.171" style="fill:#0a6a47;fill-rule:nonzero;"/><path d="M2468.8,1577.39c-0,17.246 0.004,31.688 -0,46.125c-0.021,73.5 -0.567,58.333 0.267,131.825c0.233,20.333 -7.421,27.221 -27.025,26.154c-23.517,-1.279 -47.175,-1.533 -70.696,-0.496c-18.571,0.821 -26.459,-5.562 -26.45,-24.795c0.075,-124.117 -0.359,-159.563 -1.042,-283.68c-0.087,-15.341 6.538,-21.312 21.096,-21.304c86.675,0.034 173.35,0.029 260.021,-0.287c15.054,-0.059 21.391,6.687 21.325,21.35c-0.117,25.654 0.404,51.312 0.379,76.966c-0.029,24.817 -2.908,27.9 -27.271,28.038c-42.296,0.242 -84.592,0.092 -126.887,0.104l-23.717,0" style="fill:#0a6a47;fill-rule:nonzero;"/><path d="M2525.19,1366.97c-51.975,0 -103.962,-0.496 -155.925,0.254c-19.675,0.284 -27.642,-7.045 -26.696,-26.95c1.117,-23.508 0.15,-47.112 0.188,-70.675c0.037,-24.495 2.462,-26.829 27.708,-26.862c93.558,-0.117 187.117,-0.208 280.675,-0.313c11.783,-0.012 23.563,-0.054 35.346,-0.1c13.783,-0.058 20.096,6.688 19.917,20.559c-0.334,26.329 -1.15,52.712 0.112,78.987c0.929,19.329 -6.883,26.004 -25.4,25.804c-51.967,-0.554 -103.95,-0.191 -155.925,-0.191l0,-0.513Z" style="fill:#0a6a47;fill-rule:nonzero;"/></g><g><path d="M1865.24,997.675c119.875,2.725 244.346,0.146 365.721,0.792c12.829,-12.417 47.817,-45.938 57.408,-55.142c39.492,-37.904 102.45,-95.654 129.609,-121.142c50.212,-47.12 63.962,-59.95 106.295,-99.725c23.263,-21.858 48.98,-46.171 73.113,-69.012c178.146,-0.288 356.221,-0.983 534.346,-1.363c-81.321,-82.983 -162.521,-166.079 -243.3,-249.595c-80.146,0.354 -160.321,0.045 -240.45,-0.692c-2.471,-2.533 -4.675,-4.792 -7.079,-7.254c-15.321,-15.717 -25.942,-26.571 -42.675,-43.713c-10.792,-11.05 -29.617,-30.233 -41.938,-42.791c176.013,1.525 352.263,1.075 528.4,-0.405c-81.083,-82.258 -166.562,-173.533 -246.95,-256.541c-308,-0.125 -612.1,3.316 -919.967,0.187c26.83,26.517 61.675,61.213 86.296,85.629c54.929,54.475 89.092,89.35 145.367,145.65c70.887,70.925 149.454,157.309 222.921,230.763c-37.484,36.375 -22.013,21.312 -69.35,65.45c-106.217,99.029 -231.234,216.812 -344.679,327.9c-19.838,19.425 -69.605,67.946 -93.088,91.004m385.367,51.408c-168.004,-2.004 -343.075,3.863 -509.225,-0.095c47.746,-47.109 139.775,-136.567 180.121,-176.063c122.795,-120.208 232.937,-224.446 350.558,-333.121c20.825,-19.241 11.046,-9.679 28.012,-26.175c-57.929,-65.462 -127,-135.946 -186.425,-195.883c-55.82,-56.3 -88.508,-89.379 -145.554,-146.058c-51.137,-50.809 -118.421,-117.546 -173.108,-171.688c355.887,3.575 708.221,0.821 1064.31,1.071c112.796,116.446 231.459,240.3 345.025,355.942c-95.454,0.616 -190.895,2.545 -286.345,2.975c110.858,114.212 222.029,228.1 333.245,341.962c-211.366,0.233 -422.708,1.708 -634.079,2.017c-19.129,18.091 -39.491,37.05 -57.829,54.246c-42.542,39.891 -55.942,52.425 -106.65,99.962c-27.329,25.621 -89.062,82.146 -129.904,121.429c-12.521,12.042 -55.458,53.009 -72.154,69.479" style="fill:#0a6a47;fill-rule:nonzero;"/><path d="M1979.35,651.696l-1.846,1.804c-18.588,18.717 -37.179,37.43 -55.725,56.188c-33.067,33.317 -66.092,66.596 -99.117,99.829l-2.308,2.308c-15.817,15.946 -55.559,56.105 -106.709,107.8l-77.587,78.384l-625.029,-0l249.129,-250.763l259.917,0l7.383,-7.471c93.492,-94.375 150.308,-151.695 168.983,-170.325l23.288,-23.287c6.212,-6.254 12.421,-12.508 18.633,-18.675l18,-18.046l-211.783,-206.367l-273.004,-0.212l-253.455,-251.267l209.225,0l151.775,-0.171l300.621,0l185.346,185.642l1.929,1.971c70.917,69.45 120.896,118.421 151.863,148.883l7.508,7.217l104.783,103.817l-151.82,152.741Zm93.533,-281.441l-18.546,-18.255l-7.387,-7.133c-31.305,-30.717 -78.93,-77.421 -144.517,-141.621l-201.838,-202.175l-804.754,0.167l354.963,351.937l273.296,0.213l160.633,156.558c-0.208,0.213 -0.421,0.421 -0.629,0.629l-23.288,23.25c-18.212,18.213 -72.596,73.055 -161.725,163.063l-259.871,-0l-349.208,351.479l767.067,0l92.358,-93.325c51.154,-51.7 90.85,-91.812 106.588,-107.633l2.304,-2.35c33.108,-33.275 66.133,-66.596 99.2,-99.913c18.546,-18.716 37.137,-37.429 55.6,-56.062l189.291,-190.384l-129.537,-128.445Z" style="fill:#0a6a47;fill-rule:nonzero;"/></g><path d="M2871.97,440.283c-80.263,0.075 -160.521,-0.175 -240.784,-0.745c-55.621,-56.655 -110.779,-113.75 -166.6,-170.209c176.825,1.738 353.625,4.221 530.459,1.817c-56.684,-57.517 -113.109,-115.279 -169.221,-173.358c-272,-0.171 -544.088,-5.134 -816.042,-8.067c6.763,6.725 15.429,15.283 21.379,21.225c54.313,54.196 90.654,90.45 148,148.242c78.238,78.841 166.359,173 246.725,255.129c-24.954,24.654 -41.316,39.016 -69.675,65.833c-7.896,7.467 -6.5,6.058 -25.883,24.117c-112.488,104.825 -235.254,220.921 -349.467,332.8c-5.771,5.654 -21.725,21.129 -28.329,27.662c85.554,1.442 175.479,-1.05 262.075,-1.208c8.3,-7.992 31.533,-30.288 37.567,-36.083c37.975,-36.484 113.666,-107.738 139.404,-131.88c51.046,-47.883 70.992,-66.579 111.304,-104.483c30.2,-28.396 51.075,-48.358 79.942,-75.708c152.771,0.921 306.179,-0.154 459.15,-0.621c-56.825,-58 -113.546,-116.104 -170.004,-174.463" style="fill:#be1e2d;fill-rule:nonzero;"/><path d="M2078.03,499.457l-103.263,103.508l-5.587,5.342c-24.759,24.925 -49.517,49.85 -74.234,74.775c-33.021,33.321 -66.046,66.596 -99.112,99.871c-0.629,0.629 -1.3,1.304 -2.059,2.058c-18.545,18.671 -68.816,69.487 -131.841,133.187l-41.629,42.046l-518.525,0l174.1,-175.233l259.954,-0c89.171,-90.05 165.166,-166.717 187.321,-188.875l23.245,-23.246c20.859,-20.937 42.425,-42.55 63.909,-63.612l-250.346,-243.971l-272.838,-0.209l-177.25,-175.737l269.4,-0l-0.17,-0.171l285.008,0l0.171,0.171l173.091,173.429l0.713,0.713l2.017,2.058c80.27,78.55 135.704,132.892 165.12,161.887l5.538,5.459l0.171,-0l67.096,66.55Z" style="fill:#be1e2d;fill-rule:nonzero;"/><path d="M1311.4,667.517l147.088,-150.221l-136.167,-134.692l189.821,0.146l130.762,127.446l-2.841,2.837c-17.267,17.267 -66.046,66.45 -153.225,154.484l-175.438,-0Z" style="fill:#be1e2d;fill-rule:nonzero;"/><rect x="145.783" y="1391.01" width="98.067" height="240" style="fill:#be1e2d;"/></svg>